<?xml version="1.0" encoding="UTF-8" standalone="no"?>
<svg xmlns="http://www.w3.org/2000/svg" width="200" height="60" viewBox="0 0 200 60">
  <g fill="none" fill-rule="evenodd">
    <path fill="#000000" d="M67.5,15 L81.5,15 L81.5,45 L67.5,45 L67.5,15 Z M85.5,15 L99.5,15 L99.5,45 L85.5,45 L85.5,15 Z M103.5,15 L117.5,15 L117.5,45 L103.5,45 L103.5,15 Z M121.5,15 L135.5,15 L135.5,45 L121.5,45 L121.5,15 Z"/>
    <path fill="#0099FF" d="M20,15 C31.0457,15 40,23.9543 40,35 C40,46.0457 31.0457,55 20,55 C8.9543,55 0,46.0457 0,35 C0,23.9543 8.9543,15 20,15 Z M20,25 C14.4772,25 10,29.4772 10,35 C10,40.5228 14.4772,45 20,45 C25.5228,45 30,40.5228 30,35 C30,29.4772 25.5228,25 20,25 Z"/>
  </g>
</svg>
